<?xml version="1.0" standalone="no"?><svg xmlns="http://www.w3.org/2000/svg" viewBox="0 0 1440 320"><path fill="#ffffff" fill-opacity="1" d="M0,96L17.1,128C34.3,160,69,224,103,256C137.1,288,171,288,206,266.7C240,245,274,203,309,186.7C342.9,171,377,181,411,186.7C445.7,192,480,192,514,181.3C548.6,171,583,149,617,144C651.4,139,686,149,720,170.7C754.3,192,789,224,823,234.7C857.1,245,891,235,926,202.7C960,171,994,117,1029,133.3C1062.9,149,1097,235,1131,240C1165.7,245,1200,171,1234,128C1268.6,85,1303,75,1337,85.3C1371.4,96,1406,128,1423,144L1440,160L1440,320L1422.9,320C1405.7,320,1371,320,1337,320C1302.9,320,1269,320,1234,320C1200,320,1166,320,1131,320C1097.1,320,1063,320,1029,320C994.3,320,960,320,926,320C891.4,320,857,320,823,320C788.6,320,754,320,720,320C685.7,320,651,320,617,320C582.9,320,549,320,514,320C480,320,446,320,411,320C377.1,320,343,320,309,320C274.3,320,240,320,206,320C171.4,320,137,320,103,320C68.6,320,34,320,17,320L0,320Z"></path></svg>